<?xml version="1.0" encoding="utf-8"?>
<!-- Generator: Adobe Illustrator 21.0.0, SVG Export Plug-In . SVG Version: 6.00 Build 0)  -->
<svg version="1.1" id="Layer_1" xmlns="http://www.w3.org/2000/svg" xmlns:xlink="http://www.w3.org/1999/xlink" x="0px" y="0px"
	 viewBox="0 0 851.4 512" style="enable-background:new 0 0 851.4 512;" xml:space="preserve">
<style type="text/css">
	.st0{fill:#C4AF86;}
	.st1{fill:#FFFFFF;}
</style>
<path class="st0" d="M346.4,256.3c65.1-50.1,102.3-97.8,89.1-120.5c-13.3-23.1-74.8-14.2-152.3,18.3
	c-10.7-82.9-33.6-140.3-60.2-140.3c-18.1,0-34.4,26.5-46.4,69.4c-8.7,0.2-15.7,7.3-15.7,16c0,6.1,3.5,11.5,8.6,14.2
	c-2.3,11.6-4.4,24-6.1,37.1c-76.9-32.1-137.8-40.8-151.1-17.8c-13.4,23.2,25.7,72.5,93.3,123.7c-68,51.4-107.4,100.9-94,124.2
	c13.3,23,74.3,14.2,151.2-17.9c10.6,83.1,33.6,140.6,60.2,140.6c20.1,0,38.1-32.7,50.3-84.4c0.2,0,0.3,0,0.5,0
	c6.9,0,12.6-5.6,12.6-12.6c0-5.3-3.3-9.9-8-11.7c2-11.2,3.8-23.1,5.4-35.6c77.5,32.5,139.1,41.5,152.4,18.4
	C449.4,354.5,411.9,306.6,346.4,256.3z M435,136.1c11.7,20.3-27.6,66.3-94.4,115.7c-15.9-11.9-33.2-23.9-51.9-35.7
	c-0.9-19.1-2.4-37.4-4.4-54.7C362,127.2,423.1,115.6,435,136.1z M252.9,308.9c-8.8,5.1-17.4,9.9-26.1,14.5
	c-10.5-5.6-21.2-11.5-31.9-17.7c-10.3-6-20.3-12-30.1-18.1c-0.3-9.6-0.4-19.3-0.4-29.2c0-11.4,0.2-22.6,0.6-33.6
	c9.5-5.9,19.2-11.8,29.3-17.6c11-6.3,21.9-12.4,32.6-18c8.8,4.7,17.7,9.7,26.7,14.9c9.4,5.4,18.6,10.9,27.5,16.5
	c0.5,12.3,0.7,25,0.7,37.9c0,11.4-0.2,22.5-0.6,33.5C272,297.7,262.6,303.4,252.9,308.9z M280.9,301.4c-0.7,16.3-1.8,32-3.2,47
	c-13.7-6.2-27.9-13.1-42.4-20.6c7.2-3.9,14.4-7.9,21.6-12.1C265.1,311.1,273,306.3,280.9,301.4z M218.6,327.9
	c-17,9-33.7,17.1-49.6,24.3c-1.7-17.4-3-35.9-3.7-55.1c8.4,5.2,17,10.4,25.8,15.5C200.2,318,209.4,323,218.6,327.9z M156.9,282.7
	c-13.7-8.8-26.8-17.6-39-26.3c12.3-8.8,25.4-17.6,39.2-26.4c-0.3,9.4-0.5,18.9-0.5,28.5C156.5,266.7,156.7,274.7,156.9,282.7z
	 M165.4,215.5c0.8-19.1,2.2-37.4,4-54.7c15.9,7.1,32.4,15.2,49.2,24.1c-9.3,5-18.8,10.2-28.3,15.6
	C181.8,205.5,173.5,210.5,165.4,215.5z M235.3,184.9c14.3-7.4,28.4-14.2,42-20.4c1.5,14.8,2.6,30.4,3.4,46.6
	c-7.5-4.7-15.2-9.3-23.1-13.8C250.1,193.1,242.7,188.9,235.3,184.9z M289,225.7c16.1,10.2,31.3,20.5,45.4,30.7
	c-14,10.2-29.2,20.4-45.2,30.6c0.3-9.3,0.5-18.8,0.5-28.5C289.6,247.4,289.4,236.4,289,225.7z M175.6,115.1c0.4,0,0.9,0.1,1.3,0.1
	c8.8,0,16-7.2,16-16c0-7-4.6-13-10.9-15.1c10.6-43,25-69.6,41-69.6c23.7,0,44.1,58.4,53.4,142.6c-16,6.9-32.5,14.8-49.5,23.5
	c-19.5-10.3-38.6-19.4-56.8-27.2C171.7,139.8,173.6,127.1,175.6,115.1z M12.9,132.9c11.8-20.5,72.4-9,149.6,24.8
	c-2.4,19.7-4.1,40.7-5.1,62.7c-16.3,10.4-31.6,20.9-45.7,31.3C42.2,201.2,0.9,153.7,12.9,132.9z M12.2,380.2
	c-12-20.8,29.6-68.6,99.4-119.4c14.1,10.4,29.4,20.9,45.6,31.3c0.8,22.2,2.5,43.4,4.8,63.2C84.7,389.2,24,400.7,12.2,380.2z
	 M271.9,393.9c-6,0.9-10.7,6.1-10.7,12.4c0,4.7,2.6,8.7,6.4,10.9c-10.8,52.3-26.7,85.4-44.6,85.4c-23.7,0-44.1-58.6-53.4-142.8
	c18.4-7.9,37.6-17.1,57.2-27.5c17.1,8.8,33.8,16.8,49.9,23.8C275.5,369.3,273.8,382,271.9,393.9z M435.6,377
	c-11.9,20.6-73.1,8.9-151-25.5c2-17.5,3.4-35.9,4.2-55.1c18.6-11.8,35.9-23.8,51.7-35.6C407.7,310.4,447.4,356.7,435.6,377z"/>
<g>
	<path class="st1" d="M263.9,262h-62.1c0.9,5.5,3.3,9.8,7.2,13.1c3.9,3.2,8.9,4.8,14.9,4.8c7.2,0,13.4-2.5,18.6-7.6l16.3,7.6
		c-4.1,5.8-8.9,10-14.6,12.8c-5.7,2.8-12.4,4.1-20.2,4.1c-12.1,0-21.9-3.8-29.5-11.4c-7.6-7.6-11.4-17.2-11.4-28.6
		c0-11.8,3.8-21.5,11.4-29.3c7.6-7.8,17.1-11.6,28.5-11.6c12.1,0,22,3.9,29.6,11.6c7.6,7.8,11.4,18,11.4,30.8L263.9,262z
		 M244.6,246.8c-1.3-4.3-3.8-7.8-7.6-10.5c-3.8-2.7-8.1-4-13.1-4c-5.4,0-10.1,1.5-14.2,4.5c-2.6,1.9-4.9,5.2-7.1,10H244.6z"/>
	<path class="st1" d="M271.4,190.8H329v19.5h-19V295h-20.1v-84.6h-18.5V190.8z"/>
	<path class="st1" d="M417.7,262h-62.1c0.9,5.5,3.3,9.8,7.2,13.1c3.9,3.2,8.9,4.8,14.9,4.8c7.2,0,13.4-2.5,18.6-7.6l16.3,7.6
		c-4.1,5.8-8.9,10-14.6,12.8c-5.7,2.8-12.4,4.1-20.2,4.1c-12.1,0-21.9-3.8-29.5-11.4c-7.6-7.6-11.4-17.2-11.4-28.6
		c0-11.8,3.8-21.5,11.4-29.3c7.6-7.8,17.1-11.6,28.5-11.6c12.1,0,22,3.9,29.6,11.6c7.6,7.8,11.4,18,11.4,30.8L417.7,262z
		 M398.3,246.8c-1.3-4.3-3.8-7.8-7.6-10.5c-3.8-2.7-8.1-4-13.1-4c-5.4,0-10.1,1.5-14.2,4.5c-2.6,1.9-4.9,5.2-7.1,10H398.3z"/>
	<path class="st1" d="M508.7,233.5l-16.1,8.8c-3-3.2-6-5.4-9-6.6c-3-1.2-6.4-1.8-10.4-1.8c-7.2,0-13.1,2.2-17.5,6.5
		c-4.5,4.3-6.7,9.8-6.7,16.6c0,6.6,2.2,11.9,6.5,16.1c4.3,4.2,9.9,6.2,16.9,6.2c8.7,0,15.4-3,20.2-8.8l15.2,10.4
		c-8.3,10.7-19.9,16.1-35,16.1c-13.6,0-24.2-4-31.8-12c-7.7-8-11.5-17.4-11.5-28.2c0-7.4,1.9-14.3,5.6-20.6
		c3.7-6.3,8.9-11.2,15.6-14.8c6.7-3.6,14.2-5.4,22.4-5.4c7.6,0,14.5,1.5,20.6,4.6C499.9,223.5,504.9,227.9,508.7,233.5z"/>
	<path class="st1" d="M526.2,188.2h19.2v37.5c3.8-3.2,7.6-5.7,11.4-7.3c3.8-1.6,7.7-2.4,11.6-2.4c7.6,0,14.1,2.6,19.3,7.9
		c4.5,4.6,6.7,11.3,6.7,20.2V295h-19v-33.8c0-8.9-0.4-15-1.3-18.1c-0.9-3.2-2.3-5.5-4.4-7.1c-2.1-1.5-4.6-2.3-7.6-2.3
		c-3.9,0-7.3,1.3-10.1,3.9c-2.8,2.6-4.8,6.1-5.9,10.6c-0.6,2.3-0.8,7.6-0.8,15.9v31h-19.2V188.2z"/>
</g>
<g>
	<path class="st1" d="M634.5,214.9h-10.3c1.9-8.6,5.5-15.2,10.8-19.8c5.3-4.6,11.6-6.9,18.8-6.9c5.3,0,10.2,1.2,14.7,3.7
		c4.6,2.5,8.1,5.8,10.6,10c2.5,4.2,3.7,8.6,3.7,13.2c0,9-4.3,16.1-13,21.3c4.8,2,8.8,5,11.9,8.9c4.4,5.5,6.6,11.7,6.6,18.6
		c0,5.9-1.5,11.5-4.5,16.9c-3,5.4-7.1,9.5-12.3,12.4c-5.2,2.9-11,4.4-17.5,4.4c-8.7,0-15.9-2.6-21.8-7.8
		c-5.8-5.2-9.6-12.8-11.4-22.8h9.9c1.7,6.8,4.2,11.6,7.5,14.7c4.2,3.8,9.5,5.7,15.9,5.7c7.3,0,13.2-2.3,17.6-6.8
		c4.4-4.5,6.7-9.8,6.7-15.9c0-4.1-1.1-7.9-3.3-11.4c-2.2-3.5-5.2-6.2-8.9-8c-3.7-1.8-9.5-2.9-17.3-3.3v-9.6c4.6,0,8.8-0.8,12.6-2.5
		c3.8-1.7,6.6-3.8,8.3-6.4c1.7-2.6,2.6-5.4,2.6-8.5c0-4.5-1.8-8.5-5.2-11.8c-3.5-3.3-7.9-5-13.3-5c-4.3,0-8.1,1.3-11.2,3.8
		C639.4,204.6,636.7,208.9,634.5,214.9z"/>
	<path class="st1" d="M745.4,188.2l8.3,5.6l-27.3,42.6c3.7-1.3,7.1-1.9,10.3-1.9c8,0,14.8,3,20.4,9c5.6,6,8.4,13.3,8.4,22.1
		c0,6-1.4,11.4-4.1,16.2c-2.7,4.8-6.5,8.7-11.5,11.6c-5,2.9-10.3,4.3-16,4.3c-5.5,0-10.7-1.4-15.4-4.2c-4.7-2.8-8.5-6.6-11.2-11.6
		c-2.7-5-4.1-10.4-4.1-16.1c0-4.2,0.8-8.7,2.5-13.4c1.7-4.7,4.7-10.3,9-17L745.4,188.2z M734.3,243.6c-5.9,0-10.9,2.1-15,6.4
		c-4.1,4.3-6.2,9.5-6.2,15.5c0,6,2.1,11.2,6.2,15.5c4.1,4.3,9.2,6.4,15,6.4c5.9,0,10.9-2.1,15-6.4c4.1-4.3,6.2-9.4,6.2-15.5
		c0-6.1-2.1-11.3-6.2-15.5C745.2,245.7,740.2,243.6,734.3,243.6z"/>
	<path class="st1" d="M776.2,242.9c0-13.7,1.4-24.4,4.3-31.9c2.9-7.5,6.9-13.2,12.1-17.1c5.2-3.9,11.1-5.8,17.5-5.8
		c6.5,0,12.5,2,17.8,5.8c5.3,3.9,9.5,9.7,12.6,17.5c3.1,7.8,4.6,18.2,4.6,31.4c0,13.1-1.5,23.5-4.6,31.2
		c-3.1,7.8-7.2,13.6-12.6,17.5c-5.4,3.9-11.3,5.9-17.8,5.9c-6.4,0-12.3-1.9-17.4-5.7c-5.2-3.8-9.2-9.5-12.1-17.1
		C777.6,267.2,776.2,256.5,776.2,242.9z M785.7,243.1c0,11.8,1,20.7,3.1,26.7c2,6,5,10.6,9,13.7c4,3.1,8.2,4.7,12.6,4.7
		c4.5,0,8.7-1.5,12.6-4.6c3.9-3,6.8-7.6,8.9-13.7c2.5-7.4,3.8-16.3,3.8-26.8c0-10.5-1.1-19.1-3.4-25.8c-2.2-6.7-5.3-11.6-9.3-14.7
		c-4-3.1-8.1-4.6-12.5-4.6c-4.5,0-8.7,1.6-12.6,4.6c-3.9,3.1-6.9,7.6-9,13.7C786.7,222.4,785.7,231.3,785.7,243.1z"/>
</g>
</svg>
